<svg fill="none" height="39" viewBox="0 0 38 39" width="38" xmlns="http://www.w3.org/2000/svg"><path d="m18.6746 2.58971c.0385-.26895.4269-.26894.4654 0l1.8781 13.14639 6.6125-4.9593c.2174-.163.4921.1117.3291.329l-4.9189 6.5582 13.0355 1.862c.269.0385.269.4269 0 .4654l-13.0353 1.862 4.9187 6.5582c.163.2173-.1117.492-.3291.329l-6.6125-4.9595-1.8781 13.1466c-.0385.269-.4269.269-.4654 0l-1.8643-13.0514-6.4857 4.8643c-.2173.163-.492-.1117-.32901-.329l4.90491-6.54-13.16219-1.8802c-.26895-.0385-.26896-.4269 0-.4654l13.16239-1.8804-4.90488-6.5398c-.16301-.2173.11148-.4919.32878-.329l6.4857 4.864z" fill="#fffeef"/></svg>