<svg fill="none" height="32" viewBox="0 0 83 32" width="83" xmlns="http://www.w3.org/2000/svg" xmlns:xlink="http://www.w3.org/1999/xlink"><filter id="a" color-interpolation-filters="sRGB" filterUnits="userSpaceOnUse" height="20.1818" width="20.1818" x="-1.39072" y="6.22498"><feFlood flood-opacity="0" result="BackgroundImageFix"/><feColorMatrix in="SourceAlpha" result="hardAlpha" type="matrix" values="0 0 0 0 0 0 0 0 0 0 0 0 0 0 0 0 0 0 127 0"/><feOffset dy=".322731"/><feGaussianBlur stdDeviation="1.04887"/><feComposite in2="hardAlpha" operator="out"/><feColorMatrix type="matrix" values="0 0 0 0 0.956863 0 0 0 0 0.945098 0 0 0 0 0.792157 0 0 0 0.5 0"/><feBlend in2="BackgroundImageFix" mode="normal" result="effect1_dropShadow_279_5577"/><feBlend in="SourceGraphic" in2="effect1_dropShadow_279_5577" mode="normal" result="shape"/></filter><clipPath id="b"><path d="m0 0h17.4118v17.4118h-17.4118z" transform="matrix(0 -1 1 0 0 24.7051)"/></clipPath><g clip-path="url(#b)"><g filter="url(#a)"><path d="m8.59277 8.09281c.01768-.12375.19642-.12375.21412 0l.86417 6.04909 3.04264-2.282c.1-.075.2264.0514.1514.1514l-2.2633 3.0176 5.998.8568c.1238.0177.1238.1965 0 .2142l-5.9979.8567 2.2632 3.0176c.075.1001-.0514.2264-.1514.1515l-3.04264-2.2821-.86417 6.0492c-.01769.1237-.19644.1237-.21412 0l-.85785-6.0054-2.98424 2.2383c-.10001.0749-.2264-.0514-.1514-.1515l2.25689-3.0092-6.056324-.8651c-.123751-.0177-.123755-.1965 0-.2142l6.056434-.8652-2.2569-3.0092c-.075-.1.05129-.2263.1513-.1514l2.98424 2.2381z" fill="#fffeef"/></g></g><path d="m22.3251 24v-.3424c.807-.2689.9782-1.0026.9782-2.7632v-10.90645c0-1.76067-.1712-2.49429-.9782-2.76328v-.34235h6.0401c4.0104 0 5.4777 1.24714 5.4777 3.22788 0 1.6629-1.0515 3.179-4.1327 3.717 4.0349.1223 6.089 1.9808 6.1134 4.4261.0489 2.8611-2.1764 5.7467-8.192 5.7467zm3.5703-2.5187c0 1.7606.2201 2.1274 1.2716 2.1274h.6847c3.5213 0 5.0619-1.8585 5.0619-4.4506 0-2.9344-1.6384-5.013-5.282-5.013h-1.7362zm0-7.7275h2.1764c1.7851 0 2.8611-1.3694 2.8611-3.0811 0-2.15198-1.5406-3.39912-4.0349-3.39912h-1.0026zm19.7547 10.4907c-3.5214 0-7.1406-1.6384-7.1406-6.8959v-7.36065c0-1.76067-.1711-2.49429-.9781-2.76328v-.34235h4.5484v.34235c-.807.26899-.9782 1.00261-.9782 2.76328v7.55625c0 4.4506 2.2009 6.1134 5.5266 6.1134 2.0541 0 4.7196-1.5161 4.7196-6.2601v-5.9423c0-2.98338-.5869-3.83927-1.8585-4.23053v-.34235h3.2768v.34235c-.807.26899-.9781 1.00261-.9781 2.76328v7.36065c0 4.9152-2.5677 6.8959-6.1379 6.8959zm8.914-.2445v-.3424c.8069-.2689.9781-1.0026.9781-2.7632v-10.90645c0-1.76067-.1712-2.49429-.9781-2.76328v-.34235h4.5484v.34235c-.807.26899-.9782 1.00261-.9782 2.76328v12.34915c0 .7826.4402 1.2227 1.2227 1.2227h2.0052c2.4699 0 3.7415-.5869 4.7196-2.6899l.3179.0489-.1956 3.0812zm13.4209 0v-.3424c.807-.2689.9782-1.0026.9782-2.7632v-10.90645c0-1.76067-.1712-2.49429-.9782-2.76328v-.34235h4.5484v.34235c-.807.26899-.9781 1.00261-.9781 2.76328v5.74665l5.9422-6.089c1.5651-1.5895 1.6384-2.34757.5869-2.51875v-.24453h3.8393v.34235c-.9782.26899-2.103.61135-3.3502 1.88295l-5.2087 5.33098.6114-.0245c3.6681-.1956 4.3772 1.0515 5.8934 4.9397 1.4427 3.717 1.7851 4.3038 2.5676 4.3038.1223 0 .2201 0 .3668-.0244v.3668c-.5624.1467-1.1493.1712-1.6628.1712-2.0297 0-2.2987-.5869-3.7659-4.1816-1.5406-3.7904-1.7852-5.1353-3.986-5.1353h-.4402l-1.3938 1.4427v4.5974c0 1.7606.1711 2.4943.9781 2.7632v.3424z" fill="#fffeef"/></svg>