<svg width="83" height="32" viewBox="0 0 83 32" fill="none" xmlns="http://www.w3.org/2000/svg">
<g clip-path="url(#clip0_279_5567)">
<g filter="url(#filter0_d_279_5567)">
<path d="M8.59277 8.09281C8.61045 7.96906 8.78919 7.96906 8.80689 8.09281L9.67106 14.1419L12.7137 11.8599C12.8137 11.7849 12.9401 11.9113 12.8651 12.0113L10.6018 15.0289L16.5998 15.8857C16.7236 15.9034 16.7236 16.0822 16.5998 16.0999L10.6019 16.9566L12.8651 19.9742C12.9401 20.0743 12.8137 20.2006 12.7137 20.1257L9.67106 17.8436L8.80689 23.8928C8.7892 24.0165 8.61045 24.0165 8.59277 23.8928L7.73492 17.8874L4.75068 20.1257C4.65067 20.2006 4.52428 20.0743 4.59928 19.9742L6.85617 16.965L0.799846 16.0999C0.676095 16.0822 0.676091 15.9034 0.799846 15.8857L6.85628 15.0205L4.59938 12.0113C4.52438 11.9113 4.65067 11.785 4.75068 11.8599L7.73492 14.098L8.59277 8.09281Z" fill="#1B1A14"/>
</g>
</g>
<path d="M22.3251 24V23.6576C23.1321 23.3887 23.3033 22.655 23.3033 20.8944V9.98795C23.3033 8.22728 23.1321 7.49366 22.3251 7.22467V6.88232H28.3652C32.3756 6.88232 33.8429 8.12946 33.8429 10.1102C33.8429 11.7731 32.7914 13.2892 29.7102 13.8272C33.7451 13.9495 35.7992 15.808 35.8236 18.2533C35.8725 21.1144 33.6472 24 27.6316 24H22.3251ZM25.8954 21.4813C25.8954 23.2419 26.1155 23.6087 27.167 23.6087H27.8517C31.373 23.6087 32.9136 21.7502 32.9136 19.1581C32.9136 16.2237 31.2752 14.1451 27.6316 14.1451H25.8954V21.4813ZM25.8954 13.7538H28.0718C29.8569 13.7538 30.9329 12.3844 30.9329 10.6727C30.9329 8.52072 29.3923 7.27358 26.898 7.27358H25.8954V13.7538ZM45.6501 24.2445C42.1287 24.2445 38.5095 22.6061 38.5095 17.3486V9.98795C38.5095 8.22728 38.3384 7.49366 37.5314 7.22467V6.88232H42.0798V7.22467C41.2728 7.49366 41.1016 8.22728 41.1016 9.98795V17.5442C41.1016 21.9948 43.3025 23.6576 46.6282 23.6576C48.6823 23.6576 51.3478 22.1415 51.3478 17.3975V11.4552C51.3478 8.47182 50.7609 7.61593 49.4893 7.22467V6.88232H52.7661V7.22467C51.9591 7.49366 51.788 8.22728 51.788 9.98795V17.3486C51.788 22.2638 49.2203 24.2445 45.6501 24.2445ZM54.5641 24V23.6576C55.371 23.3887 55.5422 22.655 55.5422 20.8944V9.98795C55.5422 8.22728 55.371 7.49366 54.5641 7.22467V6.88232H59.1125V7.22467C58.3055 7.49366 58.1343 8.22728 58.1343 9.98795V22.3371C58.1343 23.1197 58.5745 23.5598 59.357 23.5598H61.3622C63.8321 23.5598 65.1037 22.9729 66.0818 20.8699L66.3997 20.9188L66.2041 24H54.5641ZM67.985 24V23.6576C68.792 23.3887 68.9632 22.655 68.9632 20.8944V9.98795C68.9632 8.22728 68.792 7.49366 67.985 7.22467V6.88232H72.5334V7.22467C71.7264 7.49366 71.5553 8.22728 71.5553 9.98795V15.7346L77.4975 9.6456C79.0626 8.0561 79.1359 7.29803 78.0844 7.12685V6.88232H81.9237V7.22467C80.9455 7.49366 79.8207 7.83602 78.5735 9.10762L73.3648 14.4386L73.9762 14.4141C77.6443 14.2185 78.3534 15.4656 79.8696 19.3538C81.3123 23.0708 81.6547 23.6576 82.4372 23.6576C82.5595 23.6576 82.6573 23.6576 82.804 23.6332V24C82.2416 24.1467 81.6547 24.1712 81.1412 24.1712C79.1115 24.1712 78.8425 23.5843 77.3753 19.9896C75.8347 16.1992 75.5901 14.8543 73.3893 14.8543H72.9491L71.5553 16.297V20.8944C71.5553 22.655 71.7264 23.3887 72.5334 23.6576V24H67.985Z" fill="#1B1A14"/>
<defs>
<filter id="filter0_d_279_5567" x="-1.39072" y="6.22498" width="20.1818" height="20.1818" filterUnits="userSpaceOnUse" color-interpolation-filters="sRGB">
<feFlood flood-opacity="0" result="BackgroundImageFix"/>
<feColorMatrix in="SourceAlpha" type="matrix" values="0 0 0 0 0 0 0 0 0 0 0 0 0 0 0 0 0 0 127 0" result="hardAlpha"/>
<feOffset dy="0.322731"/>
<feGaussianBlur stdDeviation="1.04887"/>
<feComposite in2="hardAlpha" operator="out"/>
<feColorMatrix type="matrix" values="0 0 0 0 0.105882 0 0 0 0 0.101961 0 0 0 0 0.0784314 0 0 0 0.5 0"/>
<feBlend mode="normal" in2="BackgroundImageFix" result="effect1_dropShadow_279_5567"/>
<feBlend mode="normal" in="SourceGraphic" in2="effect1_dropShadow_279_5567" result="shape"/>
</filter>
<clipPath id="clip0_279_5567">
<rect width="17.4118" height="17.4118" fill="white" transform="translate(0 24.7051) rotate(-90)"/>
</clipPath>
</defs>
</svg>
